<?xml version="1.0" standalone="no"?>
<!DOCTYPE svg PUBLIC "-//W3C//DTD SVG 1.0//EN" "http://www.w3.org/TR/2001/REC-SVG-20010904/DTD/svg10.dtd">
<svg width="558" height="498" viewBox="0 0 558 498" xmlns="http://www.w3.org/2000/svg">
<title>Shield of the Trinity or Scutum Fidei diagram of Christian Trinitarian symbolism (compact version)</title>
<g transform="translate(0,498) scale(1,-1)">
<g stroke-width="2.9" stroke="#000000" fill="#ffffff">
<path d="M42.3008,412.687
L251.794,291.544
V49.9844
H307.045
V291.544
L516.526,412.687
L488.901,460.537
L279.42,339.394
L69.301,460.537Z"/>
<path d="M76.2124,425.012
H482.627
L279.42,73.1841Z
M15.3123,419.606
L244.62,22.4343
H314.22
L543.527,419.606
L508.728,479.88
H50.1113Z"/>
<circle cx="279.42" cy="307.494" r="63.8"/>
<circle cx="74.2986" cy="425.012" r="63.8"/>
<circle cx="484.542" cy="425.012" r="63.8"/>
<circle cx="279.42" cy="73.1841" r="63.8"/>
</g>
<path d="M216.2,437.081
V459.046
C216.2,461.552,216.63,463.097,217.448,463.64
C218.032,464.057,218.617,464.224,220.204,464.391
L220.204,465.147
H210.391
V464.391
C211.977,464.266,212.562,464.099,213.188,463.723
C214.023,463.139,214.344,461.635,214.344,459.046
L214.344,444.973
L198.322,465.148
H191.181
V464.336
C192.964,464.336,193.545,464.01,195.204,462.095
L195.204,443.679
C195.204,439.378,194.623,438.584,191.181,438.334
L191.181,437.541
H200.995
V438.352
C197.779,438.518,197.06,439.476,197.06,443.679
L197.06,460.049
L215.527,437.081Z"/>
<path d="M235.915,465.733
C227.939,465.733,222.232,459.734,222.232,451.363
C222.232,447.438,223.579,443.637,225.851,441.215
C228.273,438.584,231.99,436.956,235.665,436.956
C243.891,436.956,249.608,442.802,249.608,451.196
C249.608,455.33,248.384,458.88,246.063,461.385
C243.432,464.267,239.924,465.733,235.915,465.733Z
M235.915,464.225
C237.836,464.225,239.757,463.488,241.26,462.178
C243.515,460.132,244.852,456.207,244.852,451.238
C244.852,448.774,244.293,445.892,243.432,443.721
C243.056,442.677,242.346,441.633,241.386,440.673
C239.925,439.211,238.045,438.464,235.832,438.464
C233.911,438.464,232.032,439.215,230.57,440.506
C228.399,442.427,226.988,446.644,226.988,451.28
C226.988,455.539,228.17,459.59,229.944,461.552
C231.572,463.348,233.619,464.225,235.915,464.225Z"/>
<path d="M276.52,437.081
V459.046
C276.52,461.552,276.95,463.097,277.768,463.64
C278.353,464.057,278.937,464.224,280.524,464.391
L280.524,465.147
H270.711
V464.391
C272.297,464.266,272.882,464.099,273.509,463.723
C274.344,463.139,274.664,461.635,274.664,459.046
L274.664,444.973
L258.642,465.148
H251.501
V464.336
C253.284,464.336,253.865,464.01,255.524,462.095
L255.524,443.679
C255.524,439.378,254.943,438.584,251.501,438.334
L251.501,437.541
H261.315
V438.352
C258.099,438.518,257.38,439.476,257.38,443.679
L257.38,460.049
L275.847,437.081Z"/>
<path d="M316.531,444.597
H315.362
C313.274,440.087,311.478,439.164,305.506,439.164
L304.379,439.164
C302.333,439.164,300.579,439.34,300.287,439.586
C300.078,439.711,300.069,440.171,300.069,440.881
L300.069,451.228
H306.425
C309.85,451.228,310.476,450.68,311.019,447.187
L311.979,447.187
V456.875
H311.019
C310.727,455.163,310.56,454.536,310.1,453.952
C309.557,453.242,308.388,452.968,306.425,452.968
L300.069,452.968
V462.178
C300.069,463.347,300.305,463.524,301.372,463.524
L307.01,463.524
C311.729,463.524,312.647,462.908,313.357,459.213
L314.401,459.213
L314.276,465.147
H292.102
V464.391
C295.192,464.141,295.776,463.556,295.776,460.633
L295.776,442.092
C295.776,439.169,295.185,438.542,292.102,438.333
L292.102,437.54
H314.652Z"/>
<path d="M335.787,465.733
H334.91
C334.743,464.798,334.283,464.313,333.573,464.313
C333.156,464.313,332.446,464.493,331.736,464.851
C330.191,465.436,328.646,465.733,327.31,465.733
C325.514,465.733,323.677,465.037,322.299,463.849
C320.837,462.554,320.136,460.801,320.136,458.629
C320.136,455.288,321.96,452.95,326.6,450.486
C329.606,448.899,331.778,447.187,332.822,445.6
C333.198,445.057,333.476,444.18,333.476,443.178
C333.476,440.38,331.36,438.506,328.27,438.506
C324.553,438.506,321.923,440.789,319.835,445.851
L318.874,445.851
L320.127,436.998
H321.101
C321.141,437.791,321.619,438.376,322.215,438.376
C322.674,438.376,323.384,438.209,324.177,437.917
C325.764,437.29,327.435,436.956,329.105,436.956
C333.907,436.956,337.652,440.255,337.652,444.556
C337.652,447.98,335.347,450.695,329.815,453.66
C325.43,456.082,323.732,457.919,323.732,460.174
C323.732,462.471,325.464,463.993,328.019,463.993
C329.898,463.993,331.652,463.221,333.114,461.761
C334.408,460.403,334.993,459.3,335.661,456.796
L336.705,456.796Z"/>
<path d="M350.876,463.408
V442.551
C350.876,439.002,350.423,438.542,347.002,438.334
L347.002,437.541
H359.196
V438.352
C355.771,438.518,355.168,439.059,355.168,442.092
L355.168,463.408
H357.442
C362.202,463.408,363.121,462.66,364.081,458.086
L365.083,458.086
L364.833,465.148
H341.281
L341.03,458.086
H342.032
C343.034,462.638,343.995,463.408,348.672,463.408Z"/>
<path d="M387.716,175.359
L368.694,186.342
C366.523,187.594,365.395,188.729,365.322,189.687
C365.252,190.401,365.4,190.992,366.049,192.45
L365.362,192.846
L360.456,184.347
L361.142,183.951
C362.044,185.262,362.481,185.685,363.12,186.04
C364.043,186.471,365.534,186.044,367.776,184.75
L379.964,177.714
L354.421,173.896
L350.851,167.712
L351.537,167.316
C352.435,168.871,353.016,169.21,355.552,169.675
L371.5,160.467
C375.225,158.317,375.621,157.414,374.104,154.287
L374.791,153.89
L379.698,162.39
L379.011,162.786
C377.259,160.085,376.072,159.95,372.419,162.059
L358.243,170.244
L387.362,174.744Z"/>
<path d="M372.709,206.727
C368.721,199.819,371.089,191.894,378.359,187.697
C381.759,185.734,385.718,184.992,388.942,185.733
C392.432,186.515,395.7,188.919,397.538,192.102
C401.651,199.227,399.427,207.069,392.159,211.265
C388.579,213.332,384.899,214.059,381.581,213.322
C377.771,212.485,374.714,210.198,372.709,206.726
L372.709,206.727Z
M374.012,205.975
C374.973,207.638,376.584,208.926,378.493,209.56
C381.393,210.49,385.439,209.648,389.743,207.164
C391.876,205.932,394.101,204.021,395.563,202.212
C396.279,201.364,396.829,200.227,397.18,198.915
C397.715,196.919,397.426,194.916,396.32,192.998
C395.359,191.335,393.769,190.083,391.917,189.465
C389.167,188.545,384.825,189.46,380.811,191.778
C377.122,193.908,374.199,196.946,373.376,199.446
C372.635,201.754,372.863,203.986,374.011,205.974Z"/>
<path d="M417.876,227.559
L398.854,238.542
C396.684,239.794,395.555,240.929,395.482,241.887
C395.412,242.601,395.561,243.192,396.209,244.65
L395.522,245.046
L390.616,236.547
L391.302,236.151
C392.205,237.462,392.641,237.885,393.28,238.24
C394.203,238.671,395.694,238.244,397.936,236.95
L410.124,229.914
L384.581,226.096
L381.011,219.912
L381.697,219.516
C382.595,221.071,383.176,221.41,385.712,221.875
L401.661,212.667
C405.385,210.517,405.781,209.614,404.265,206.487
L404.951,206.09
L409.858,214.59
L409.171,214.986
C407.419,212.285,406.232,212.15,402.579,214.259
L388.403,222.444
L417.522,226.944Z"/>
<path d="M431.353,265.924
L430.769,264.911
C433.63,260.848,433.6,258.792,430.615,253.62
L430.051,252.644
C429.028,250.871,427.97,249.457,427.571,249.35
C427.358,249.232,426.919,249.39,426.304,249.745
L417.371,254.902
L420.587,260.471
C422.299,263.436,423.082,263.707,426.355,262.444
L426.835,263.276
L418.445,268.12
L417.965,267.288
C419.301,266.179,419.761,265.721,420.037,265.031
C420.38,264.206,420.084,263.026,419.103,261.326
L415.888,255.757
L407.859,260.392
C406.847,260.977,406.755,261.319,407.319,262.295
L410.137,267.178
C412.497,271.264,413.499,271.747,417.109,270.482
L417.631,271.386
L412.397,274.263
L401.31,255.059
L401.996,254.663
C403.758,257.213,404.537,257.391,407.068,255.929
L423.125,246.659
C425.656,245.197,425.907,244.378,424.564,241.634
L425.25,241.237
L436.525,260.766Z"/>
<path d="M422.645,293.241
L422.207,292.481
C422.955,291.856,423.123,291.228,422.768,290.614
C422.559,290.252,422.059,289.72,421.416,289.273
C420.137,288.227,419.075,287.056,418.406,285.898
C417.509,284.343,417.205,282.398,417.564,280.599
C417.954,278.686,419.098,277.158,420.978,276.073
C423.871,274.402,426.815,274.824,431.287,277.643
C434.165,279.454,436.733,280.478,438.63,280.588
C439.288,280.643,440.152,280.384,441.019,279.883
C443.442,278.484,444.062,275.715,442.538,273.075
C440.679,269.856,437.375,268.727,431.919,269.465
L431.439,268.634
L439.732,265.292
L440.191,266.088
C439.525,266.52,439.269,267.246,439.582,267.789
C439.812,268.187,440.312,268.718,440.961,269.259
C442.297,270.32,443.421,271.6,444.257,273.046
C446.658,277.205,445.659,282.073,441.934,284.224
C438.969,285.936,435.47,285.304,430.145,282.013
C425.856,279.426,423.387,278.827,421.434,279.954
C419.445,281.102,418.948,283.414,420.243,285.656
C421.182,287.284,422.746,288.406,424.779,288.921
C426.584,289.373,427.816,289.337,430.284,288.684
L430.806,289.588Z"/>
<path d="M432.241,305.16
L450.323,294.72
C453.397,292.945,453.565,292.317,452.013,289.211
L452.699,288.814
L458.796,299.375
L458.11,299.771
C456.253,296.89,455.49,296.655,452.85,298.179
L434.371,308.849
L435.498,310.802
C437.878,314.925,438.988,315.344,443.448,313.879
L443.948,314.747
L437.675,318.08
L425.899,297.682
L431.922,293.916
L432.423,294.784
C428.982,297.927,428.775,299.156,431.113,303.206Z"/>
<path d="M110.029,282.01
L129.051,292.992
C131.221,294.245,132.768,294.656,133.634,294.24
C134.288,293.943,134.725,293.52,135.663,292.229
L136.35,292.625
L131.443,301.125
L130.756,300.728
C131.441,299.291,131.589,298.702,131.576,297.971
C131.488,296.955,130.374,295.879,128.131,294.584
L115.943,287.548
L125.409,311.577
L121.839,317.761
L121.152,317.365
C122.05,315.809,122.053,315.136,121.188,312.708
L105.239,303.5
C101.515,301.35,100.534,301.459,98.5845,304.335
L97.8979,303.939
L102.805,295.44
L103.491,295.836
C102.029,298.705,102.505,299.8,106.158,301.909
L120.334,310.094
L109.673,282.625Z"/>
<path d="M144.714,279.331
C140.726,286.239,132.679,288.15,125.409,283.954
C122.009,281.991,119.386,278.933,118.417,275.77
C117.35,272.357,117.797,268.324,119.635,265.141
C123.748,258.017,131.651,256.021,138.919,260.218
C142.499,262.285,144.969,265.109,145.99,268.351
C147.169,272.07,146.718,275.859,144.714,279.331Z
M143.411,278.579
C144.372,276.916,144.681,274.877,144.275,272.906
C143.63,269.93,140.879,266.846,136.575,264.362
C134.442,263.13,131.674,262.159,129.376,261.797
C128.285,261.601,127.025,261.694,125.713,262.045
C123.717,262.58,122.127,263.831,121.02,265.749
C120.06,267.412,119.771,269.416,120.162,271.328
C120.739,274.169,123.703,277.472,127.718,279.789
C131.406,281.919,135.499,282.932,138.075,282.395
C140.445,281.882,142.263,280.569,143.411,278.581Z"/>
<path d="M140.189,229.81
L159.211,240.792
C161.382,242.045,162.928,242.456,163.794,242.04
C164.448,241.743,164.885,241.32,165.823,240.029
L166.51,240.426
L161.603,248.925
L160.917,248.528
C161.601,247.091,161.749,246.502,161.737,245.771
C161.648,244.755,160.534,243.679,158.292,242.384
L146.104,235.348
L155.569,259.377
L151.999,265.561
L151.312,265.165
C152.21,263.609,152.213,262.936,151.348,260.509
L135.399,251.301
C131.675,249.15,130.695,249.259,128.745,252.135
L128.058,251.739
L132.965,243.24
L133.651,243.636
C132.189,246.505,132.666,247.6,136.318,249.709
L150.494,257.894
L139.833,230.425Z"/>
<path d="M166.685,198.962
L166.101,199.974
C161.151,199.528,159.386,200.581,156.4,205.753
L155.836,206.73
C154.813,208.502,154.117,210.125,154.224,210.524
C154.229,210.767,154.583,211.069,155.198,211.424
L164.131,216.581
L167.347,211.012
C169.059,208.047,168.902,207.233,166.172,205.03
L166.652,204.199
L175.042,209.043
L174.562,209.874
C172.933,209.271,172.307,209.103,171.571,209.208
C170.685,209.323,169.812,210.169,168.83,211.869
L165.615,217.438
L173.643,222.074
C174.656,222.658,174.998,222.567,175.562,221.59
L178.38,216.708
C180.74,212.621,180.656,211.512,177.756,209.018
L178.278,208.115
L183.387,211.209
L172.3,230.413
L171.613,230.017
C172.941,227.215,172.706,226.453,170.175,224.992
L154.117,215.721
C151.586,214.26,150.751,214.452,149.046,216.988
L148.359,216.591
L159.634,197.063Z"/>
<path d="M194.649,192.817
L194.211,193.577
C193.296,193.242,192.668,193.41,192.313,194.025
C192.104,194.386,191.895,195.085,191.828,195.867
C191.562,197.498,191.079,199.002,190.411,200.16
C189.513,201.715,187.98,202.95,186.242,203.539
C184.391,204.157,182.495,203.93,180.615,202.845
C177.722,201.175,176.615,198.414,176.821,193.131
C176.949,189.734,176.553,186.997,175.7,185.3
C175.419,184.703,174.763,184.085,173.896,183.583
C171.472,182.185,168.765,183.033,167.241,185.673
C165.383,188.892,166.056,192.318,169.424,196.674
L168.944,197.505
L161.903,191.994
L162.362,191.199
C163.069,191.559,163.827,191.418,164.14,190.875
C164.369,190.478,164.579,189.779,164.723,188.946
C164.974,187.259,165.52,185.645,166.355,184.198
C168.756,180.04,173.472,178.47,177.197,180.621
C180.161,182.333,181.364,185.68,181.176,191.936
C181.081,196.944,181.796,199.381,183.749,200.509
C185.738,201.657,187.989,200.932,189.283,198.69
C190.223,197.063,190.413,195.148,189.841,193.129
C189.331,191.341,188.684,190.291,186.883,188.48
L187.405,187.576Z"/>
<path d="M200.194,178.56
L182.112,168.12
C179.038,166.345,178.411,166.513,176.497,169.411
L175.81,169.014
L181.907,158.454
L182.594,158.85
C181.027,161.898,181.204,162.677,183.844,164.201
L202.324,174.871
L203.451,172.917
C205.831,168.795,205.64,167.623,202.142,164.495
L202.643,163.627
L208.665,167.394
L196.889,187.791
L190.616,184.458
L191.117,183.591
C195.56,184.999,196.728,184.564,199.066,180.513Z"/>

<path d="M375.086,354.153
L374.074,353.569
C374.52,348.619,373.467,346.854,368.295,343.868
L367.318,343.304
C365.546,342.281,363.923,341.585,363.524,341.692
C363.281,341.697,362.979,342.051,362.624,342.666
L357.467,351.599
L363.036,354.815
C366,356.527,366.815,356.37,369.018,353.64
L369.849,354.12
L365.005,362.51
L364.174,362.03
C364.777,360.401,364.945,359.775,364.839,359.039
C364.725,358.153,363.879,357.28,362.178,356.298
L356.609,353.083
L351.974,361.111
C351.39,362.124,351.481,362.466,352.458,363.03
L357.34,365.848
C361.427,368.208,362.536,368.124,365.03,365.224
L365.933,365.746
L362.838,370.855
L343.635,359.768
L344.031,359.081
C346.833,360.409,347.595,360.174,349.056,357.643
L358.327,341.585
C359.788,339.054,359.595,338.219,357.06,336.514
L357.457,335.827
L376.985,347.102Z"/>
<path d="M381.115,382.117
L380.355,381.679
C380.69,380.764,380.522,380.136,379.907,379.781
C379.545,379.573,378.847,379.363,378.065,379.296
C376.434,379.03,374.93,378.547,373.772,377.879
C372.217,376.981,370.981,375.448,370.393,373.71
C369.775,371.859,370.001,369.963,371.087,368.083
C372.757,365.19,375.518,364.083,380.801,364.289
C384.198,364.417,386.935,364.021,388.632,363.168
C389.229,362.887,389.847,362.231,390.348,361.364
C391.747,358.94,390.899,356.233,388.259,354.709
C385.04,352.851,381.614,353.524,377.258,356.892
L376.427,356.412
L381.938,349.371
L382.733,349.83
C382.373,350.537,382.514,351.295,383.057,351.608
C383.454,351.837,384.153,352.047,384.986,352.191
C386.673,352.442,388.287,352.988,389.733,353.823
C393.892,356.224,395.461,360.94,393.311,364.665
C391.599,367.629,388.252,368.832,381.996,368.644
C376.988,368.549,374.551,369.264,373.423,371.217
C372.275,373.206,373,375.457,375.242,376.751
C376.869,377.691,378.784,377.881,380.803,377.309
C382.591,376.799,383.641,376.152,385.452,374.351
L386.355,374.873Z"/>
<path d="M395.372,387.662
L405.812,369.58
C407.587,366.506,407.419,365.879,404.521,363.965
L404.918,363.278
L415.478,369.375
L415.082,370.062
C412.033,368.495,411.255,368.672,409.731,371.312
L399.061,389.792
L401.014,390.919
C405.137,393.299,406.309,393.108,409.437,389.61
L410.305,390.111
L406.538,396.133
L386.141,384.357
L389.474,378.084
L390.341,378.585
C388.933,383.028,389.368,384.196,393.419,386.534Z"/>
<path d="M163.6,367.039
L162.587,367.623
C158.524,364.761,156.469,364.792,151.296,367.777
L150.32,368.341
C148.547,369.364,147.133,370.422,147.026,370.821
C146.908,371.034,147.066,371.473,147.421,372.087
L152.578,381.021
L158.147,377.805
C161.112,376.093,161.383,375.31,160.12,372.037
L160.952,371.556
L165.796,379.947
L164.964,380.427
C163.855,379.091,163.397,378.631,162.707,378.355
C161.882,378.012,160.702,378.308,159.002,379.289
L153.433,382.504
L158.068,390.532
C158.653,391.545,158.995,391.637,159.971,391.073
L164.854,388.254
C168.94,385.895,169.423,384.893,168.158,381.283
L169.062,380.761
L171.939,385.995
L152.735,397.082
L152.339,396.396
C154.889,394.634,155.067,393.855,153.605,391.324
L144.335,375.266
C142.873,372.735,142.054,372.485,139.31,373.828
L138.913,373.142
L158.442,361.866Z"/>
<path d="M190.917,375.747
L190.157,376.185
C189.532,375.437,188.904,375.269,188.289,375.624
C187.927,375.833,187.396,376.333,186.948,376.977
C185.902,378.255,184.732,379.317,183.574,379.986
C182.019,380.883,180.073,381.187,178.274,380.828
C176.362,380.438,174.834,379.294,173.748,377.414
C172.078,374.521,172.5,371.577,175.319,367.105
C177.129,364.227,178.154,361.659,178.264,359.762
C178.318,359.104,178.06,358.24,177.559,357.373
C176.16,354.95,173.391,354.33,170.751,355.854
C167.532,357.713,166.402,361.018,167.141,366.473
L166.31,366.953
L162.968,358.66
L163.763,358.201
C164.196,358.867,164.922,359.123,165.465,358.81
C165.863,358.581,166.394,358.081,166.935,357.431
C167.996,356.095,169.275,354.971,170.722,354.135
C174.88,351.734,179.749,352.733,181.9,356.458
C183.612,359.423,182.979,362.922,179.689,368.247
C177.102,372.536,176.502,375.005,177.63,376.958
C178.778,378.948,181.09,379.444,183.332,378.149
C184.96,377.21,186.081,375.646,186.596,373.613
C187.049,371.808,187.013,370.576,186.36,368.108
L187.263,367.586Z"/>
<path d="M202.836,366.151
L192.396,348.069
C190.621,344.995,189.993,344.827,186.887,346.379
L186.49,345.693
L197.051,339.596
L197.448,340.282
C194.566,342.139,194.331,342.901,195.855,345.542
L206.525,364.021
L208.478,362.894
C212.601,360.514,213.021,359.404,211.555,354.944
L212.423,354.443
L215.756,360.717
L195.358,372.493
L191.592,366.47
L192.46,365.969
C195.603,369.409,196.832,369.617,200.882,367.279Z"/>
<path d="M272.557,200.329
V201.499
C268.047,203.586,267.124,205.382,267.124,211.354
L267.124,212.481
C267.124,214.527,267.3,216.281,267.546,216.573
C267.671,216.782,268.131,216.907,268.841,216.907
L279.188,216.907
V210.435
C279.188,207.01,278.64,206.384,275.146,205.841
L275.146,204.881
H284.835
V205.841
C283.123,206.134,282.496,206.301,281.912,206.76
C281.202,207.303,280.928,208.472,280.928,210.435
L280.928,216.907
H290.138
C291.307,216.907,291.484,216.649,291.484,215.488
L291.484,209.85
C291.484,205.132,290.868,204.213,287.173,203.503
L287.173,202.459
L293.107,202.584
V224.759
H292.351
C292.101,221.668,291.516,221.2,288.593,221.2
L270.052,221.2
C267.129,221.2,266.502,221.773,266.293,224.759
L265.5,224.759
V202.208Z"/>
<path d="M293.693,181.073
V181.95
C292.758,182.117,292.273,182.576,292.273,183.286
C292.273,183.704,292.453,184.414,292.811,185.124
C293.396,186.669,293.693,188.214,293.693,189.55
C293.693,191.346,292.997,193.183,291.809,194.561
C290.514,196.023,288.76,196.723,286.589,196.723
C283.248,196.723,280.91,194.9,278.446,190.26
C276.859,187.253,275.147,185.082,273.56,184.038
C273.017,183.662,272.14,183.384,271.138,183.384
C268.34,183.384,266.466,185.5,266.466,188.59
C266.466,192.306,268.749,194.937,273.811,197.025
L273.811,197.986
L264.958,196.733
V195.759
C265.751,195.719,266.336,195.241,266.336,194.645
C266.336,194.186,266.169,193.476,265.876,192.682
C265.25,191.096,264.916,189.425,264.916,187.755
C264.916,182.953,268.215,179.208,272.516,179.208
C275.94,179.208,278.655,181.513,281.62,187.045
C284.042,191.43,285.879,193.128,288.134,193.128
C290.431,193.128,291.953,191.396,291.953,188.841
C291.953,186.961,291.181,185.208,289.721,183.746
C288.363,182.452,287.26,181.867,284.756,181.199
L284.756,180.155Z"/>
<path d="M291.368,165.984
H270.511
C266.962,165.984,266.502,166.437,266.294,169.858
L265.5,169.858
V157.664
H266.312
C266.478,161.089,267.019,161.692,270.052,161.692
L291.368,161.692
V159.418
C291.368,154.658,290.62,153.739,286.046,152.779
L286.046,151.776
L293.108,152.027
V175.579
L286.046,175.83
V174.828
C290.598,173.825,291.368,172.865,291.368,168.188Z"/>
<path d="M26.3079,427.557
C27.2566,427.478,27.8784,427.448,28.8271,427.448
C31.7224,427.448,33.7268,427.84,35.323,428.78
C37.55,430.042,38.8354,432.447,38.8354,435.05
C38.8354,436.707,38.3333,438.205,37.3647,439.349
C35.8801,441.084,32.6506,442.179,29.1614,442.179
L19.3618,442.179
V441.439
C22.1086,441.124,22.4797,440.73,22.4797,437.89
L22.4797,420.813
C22.4797,417.5,22.1829,417.105,19.3618,416.829
L19.3618,416.08
H29.7554
V416.776
C26.823,416.896,26.3079,417.457,26.3079,420.378
L26.3079,427.557Z
M26.3079,439.389
C26.3079,440.454,26.5596,440.788,27.5281,440.788
C32.5391,440.788,34.7756,438.916,34.7756,434.814
C34.7756,430.989,32.6077,429.072,28.3818,429.072
C27.6545,429.072,27.1443,429.093,26.3079,429.135Z"/>
<path d="M62.7227,416.829
C61.0525,416.948,60.6812,417.342,59.3821,420.26
L50.1394,442.653
H49.3972
L41.6763,423.297
C39.3008,417.539,38.8552,416.908,37.0735,416.829
L37.0735,416.08
H44.4231
V416.776
C42.6414,416.776,41.8992,417.306,41.8992,418.446
C41.8992,418.919,42.0105,419.471,42.196,419.984
L43.9036,424.547
H53.6289
L55.1506,420.812
C55.5959,419.748,55.8557,418.722,55.8557,418.17
C55.8557,417.184,55.2249,416.868,53.2573,416.829
L53.2573,416.08
H62.7229
L62.7227,416.829Z
M44.5339,426.172
L48.8027,437.062
L53.1086,426.172Z"/>
<path d="M69.8079,440.556
V420.813
C69.8079,417.46,69.4031,417.027,66.3511,416.829
L66.3511,416.08
H77.1899
V416.776
C74.1462,416.936,73.6357,417.457,73.6357,420.379
L73.6357,440.556
H75.6309
C79.8623,440.556,80.679,439.842,81.5327,435.484
L82.4236,435.484
L82.2009,442.18
H61.2654
L61.0427,435.484
H61.9336
C62.8245,439.783,63.6782,440.556,67.8354,440.556Z"/>
<path d="M105.309,422.745
H104.269
C102.413,418.486,100.817,417.472,95.509,417.472
L94.5068,417.472
C92.688,417.472,91.1292,417.697,90.8691,418.013
C90.6836,418.131,90.6882,418.565,90.6882,419.235
L90.6882,428.956
H96.3257
C99.3694,428.956,99.9263,428.446,100.409,425.191
L101.262,425.191
V434.341
H100.409
C100.149,432.724,100,432.132,99.5923,431.58
C99.1099,430.909,98.0706,430.58,96.3259,430.58
L90.6885,430.58
V439.35
C90.6885,440.454,90.8972,440.672,91.8345,440.672
L96.8455,440.672
C101.04,440.672,101.856,440.083,102.488,436.549
L103.416,436.549
L103.304,442.18
H83.5935
V441.44
C86.3403,441.203,86.8599,440.651,86.8599,437.89
L86.8599,420.379
C86.8599,417.618,86.3345,417.027,83.5935,416.83
L83.5935,416.08
H103.638Z"/>
<path d="M130.23,416.829
C128.82,416.948,128.077,417.342,127.001,418.683
L119.354,428.661
C121.841,429.174,122.955,429.647,124.18,430.712
C125.367,431.737,126.068,433.394,126.068,435.247
C126.068,436.943,125.587,438.402,124.625,439.546
C123.215,441.163,120.134,442.179,116.645,442.179
L106.399,442.179
V441.439
C109.183,441.124,109.48,440.69,109.48,437.89
L109.48,420.812
C109.48,417.539,109.118,417.066,106.399,416.829
L106.399,416.08
H116.682
V416.829
C113.823,417.026,113.309,417.539,113.309,420.378
L113.309,428.148
L115.42,428.227
L124.254,416.079
H130.23
V416.829Z
M113.308,439.31
C113.308,440.414,113.723,440.788,115.233,440.788
C119.873,440.788,122.008,439.073,122.008,435.327
C122.008,433.355,121.235,431.698,119.91,430.949
C118.195,429.924,116.889,429.687,113.308,429.608Z"/>
<path d="M445.912,425.191
V434.341
H445.059
C444.613,431.186,443.945,430.58,440.976,430.58
L435.672,430.58
V439.35
C435.672,440.454,435.845,440.672,436.781,440.672
L441.829,440.672
C446.023,440.672,446.84,440.083,447.471,436.549
L448.399,436.549
L448.288,442.18
H428.577
V441.44
C431.324,441.203,431.844,440.651,431.844,437.89
L431.844,420.813
C431.844,417.54,431.431,417.027,428.577,416.83
L428.577,416.08
H438.971
V416.776
C436.113,416.936,435.672,417.496,435.672,420.379
L435.672,428.956
H440.975
C443.982,428.956,444.613,428.368,445.058,425.191Z"/>
<path d="M453.072,420.379
C453.072,417.421,452.586,416.948,449.448,416.829
L449.448,416.08
H460.473
V416.776
C457.429,416.896,456.9,417.457,456.9,420.379
L456.9,437.89
C456.9,440.769,457.41,441.281,460.473,441.439
L460.473,442.179
H449.448
V441.484
C452.603,441.284,453.072,440.845,453.072,437.89Z"/>
<path d="M482.346,422.943
C481.715,421.444,481.195,420.537,480.638,419.866
C479.339,418.328,477.298,417.588,474.217,417.588
L471.73,417.588
C469.02,417.588,468.616,417.83,468.616,419.235
L468.616,437.89
C468.616,440.69,469.125,441.243,471.99,441.44
L471.99,442.18
H461.522
V441.44
C464.269,441.203,464.788,440.651,464.788,437.89
L464.788,420.379
C464.788,417.618,464.263,417.027,461.522,416.83
L461.522,416.08
H481.492
L483.274,422.943Z"/>
<path d="M488.104,420.379
C488.104,417.421,487.618,416.948,484.48,416.829
L484.48,416.08
H495.505
V416.776
C492.461,416.896,491.932,417.457,491.932,420.379
L491.932,437.89
C491.932,440.769,492.442,441.281,495.505,441.439
L495.505,442.179
H484.48
V441.484
C487.635,441.284,488.104,440.845,488.104,437.89Z"/>
<path d="M518.728,436.392
C518.728,440.414,519.181,441.045,522.278,441.44
L522.278,442.18
H513.666
V441.44
C516.561,441.203,517.104,440.335,517.104,436.392
L517.104,425.743
C517.104,423.061,516.859,421.563,516.302,420.379
C515.299,418.486,512.924,417.268,510.14,417.268
C507.504,417.268,505.685,418.213,504.683,420.063
C504.015,421.325,503.764,422.785,503.764,425.27
L503.764,437.89
C503.764,440.73,504.171,441.164,507.133,441.44
L507.133,442.18
H496.628
V441.44
C499.56,441.203,499.936,440.769,499.936,437.89
L499.936,425.585
C499.936,418.762,502.953,415.528,509.285,415.528
C513.331,415.528,516.115,416.908,517.563,419.59
C518.454,421.246,518.728,423.061,518.728,426.098Z"/>
<path d="M539.497,442.732
H538.717
C538.569,441.831,538.161,441.391,537.53,441.391
C537.158,441.391,536.527,441.552,535.896,441.874
C534.523,442.426,533.15,442.732,531.962,442.732
C530.366,442.732,528.733,442.065,527.508,440.927
C526.208,439.705,525.457,438.048,525.457,435.997
C525.457,432.842,527.113,430.634,531.331,428.307
C534.003,426.808,535.934,425.191,536.862,423.692
C537.196,423.18,537.404,422.352,537.404,421.405
C537.404,418.763,535.539,416.96,532.815,416.96
C529.512,416.96,527.173,419.125,525.317,423.929
L524.464,423.929
L525.577,415.568
H526.366
C526.404,416.317,526.861,416.87,527.433,416.87
C527.841,416.87,528.472,416.712,529.177,416.436
C530.588,415.844,532.073,415.529,533.558,415.529
C537.826,415.529,541.116,418.645,541.116,422.707
C541.116,425.941,539.079,428.504,534.188,431.305
C530.291,433.592,528.704,435.327,528.704,437.457
C528.704,439.626,530.275,441.109,532.592,441.109
C534.262,441.109,535.822,440.365,537.121,438.956
C538.271,437.681,538.791,436.644,539.385,434.293
L540.313,434.293Z"/>
<path d="M229.54,299.412
C229.54,296.405,229.046,295.862,225.916,295.654
L225.916,294.86
H237.776
C242.62,294.86,247.005,296.238,249.594,298.577
C252.308,301.041,253.783,304.757,253.783,308.808
C253.783,312.566,252.555,315.823,250.303,318.12
C247.464,321.001,242.912,322.468,237.191,322.468
L225.916,322.468
V321.712
C229.215,321.419,229.54,321.044,229.54,317.953
L229.54,299.412Z
M233.832,319.331
C233.832,320.626,234.295,320.844,236.022,320.844
C239.613,320.844,242.328,320.213,244.332,318.872
C247.589,316.617,249.26,313.026,249.26,308.515
C249.26,303.588,247.562,300.08,244.207,298.117
C242.077,296.906,239.655,296.484,236.022,296.484
C234.352,296.484,233.832,296.843,233.832,298.117Z"/>
<path d="M280.223,301.917
H279.053
C276.966,297.407,275.17,296.484,269.198,296.484
L268.071,296.484
C266.025,296.484,264.271,296.66,263.979,296.906
C263.77,297.031,263.76,297.491,263.76,298.201
L263.76,308.548
H270.117
C273.542,308.548,274.168,308,274.711,304.507
L275.671,304.507
V314.195
H274.711
C274.418,312.483,274.251,311.856,273.792,311.272
C273.249,310.562,272.08,310.288,270.117,310.288
L263.76,310.288
V319.498
C263.76,320.667,263.997,320.844,265.064,320.844
L270.702,320.844
C275.42,320.844,276.339,320.228,277.049,316.533
L278.093,316.533
L277.968,322.468
H255.793
V321.711
C258.884,321.461,259.468,320.876,259.468,317.953
L259.468,299.412
C259.468,296.489,258.877,295.862,255.793,295.654
L255.793,294.86
H278.344Z"/>
<path d="M306.332,316.366
C306.332,320.626,306.832,321.294,310.253,321.712
L310.253,322.468
H300.564
V321.712
C303.822,321.461,304.476,320.542,304.476,316.366
L304.476,305.091
C304.476,302.252,304.188,300.665,303.529,299.412
C302.402,297.408,299.729,296.132,296.597,296.132
C293.632,296.132,291.586,297.128,290.458,299.078
C289.707,300.414,289.396,301.959,289.396,304.59
L289.396,317.953
C289.396,320.96,289.858,321.419,293.215,321.712
L293.215,322.468
H281.397
V321.712
C284.696,321.461,285.104,321.002,285.104,317.953
L285.104,304.924
C285.104,297.7,288.503,294.276,295.637,294.276
C300.188,294.276,303.321,295.737,304.949,298.577
C305.951,300.331,306.332,302.252,306.332,305.467Z"/>
<path d="M329.639,323.052
H328.762
C328.595,322.118,328.135,321.633,327.426,321.633
C327.008,321.633,326.298,321.813,325.588,322.171
C324.043,322.755,322.498,323.052,321.162,323.052
C319.366,323.052,317.529,322.357,316.151,321.169
C314.689,319.874,313.989,318.12,313.989,315.949
C313.989,312.608,315.812,310.27,320.452,307.806
C323.458,306.219,325.63,304.507,326.674,302.92
C327.05,302.377,327.328,301.5,327.328,300.498
C327.328,297.7,325.212,295.826,322.122,295.826
C318.406,295.826,315.775,298.108,313.687,303.171
L312.726,303.171
L313.979,294.318
H314.953
C314.993,295.111,315.471,295.696,316.067,295.696
C316.526,295.696,317.236,295.529,318.03,295.236
C319.616,294.61,321.287,294.276,322.957,294.276
C327.759,294.276,331.504,297.575,331.504,301.876
C331.504,305.3,329.199,308.015,323.667,310.979
C319.282,313.401,317.584,315.239,317.584,317.494
C317.584,319.791,319.316,321.313,321.871,321.313
C323.75,321.313,325.504,320.541,326.966,319.081
C328.26,317.723,328.845,316.619,329.513,314.116
L330.557,314.116Z"/>
<path d="M235.147,97.6855
H234.612
C234.51,97.093,234.229,96.7786,233.795,96.7786
C233.54,96.7786,233.106,96.8955,232.672,97.1287
C231.728,97.502,230.784,97.6853,229.967,97.6853
C228.87,97.6853,227.747,97.2434,226.905,96.4883
C226.012,95.6614,225.597,94.5408,225.597,93.1533
C225.597,91.019,226.707,89.5249,229.534,87.9509
C231.371,86.9373,232.698,85.8433,233.336,84.8296
C233.565,84.4829,233.716,83.9226,233.716,83.2822
C233.716,81.4949,232.431,80.2617,230.554,80.2617
C228.283,80.2617,226.675,81.7312,225.399,84.9897
L224.812,84.9897
L225.578,79.3337
H226.192
C226.216,79.8406,226.5,80.2141,226.854,80.2141
C227.134,80.2141,227.568,80.1074,228.053,79.9207
C229.022,79.5205,230.043,79.3071,231.064,79.3071
C233.999,79.3071,236.268,81.4148,236.268,84.1628
C236.268,86.3506,234.865,88.0847,231.498,89.979
C228.818,91.5264,227.8,92.7002,227.8,94.1409
C227.8,95.6082,228.849,96.6416,230.4,96.6416
C231.549,96.6416,232.621,96.1279,233.514,95.1545
C234.305,94.2859,234.662,93.5793,235.07,91.9763
L235.708,91.9763Z"/>
<path d="M242.996,87.4438
C243.679,87.3906,244.125,87.3362,244.808,87.3362
C246.798,87.3362,248.176,87.6111,249.273,88.271
C250.804,89.1248,251.695,90.7522,251.695,92.5129
C251.695,93.6333,251.347,94.6472,250.677,95.4209
C249.656,96.5947,247.436,97.3115,245.037,97.3115
L238.3,97.3115
V96.835
C240.188,96.6216,240.444,96.3547,240.444,94.4338
L240.444,82.8816
C240.444,80.6406,240.24,80.3738,238.3,80.187
L238.3,79.6802
H245.446
V80.144
C243.43,80.2251,242.996,80.6057,242.996,82.5881
L242.996,87.4438Z
M242.996,95.448
C242.996,96.1682,243.185,96.384,243.915,96.384
C247.36,96.384,248.912,95.1208,248.912,92.3533
C248.912,89.7654,247.417,88.3804,244.501,88.3804
C243.974,88.3804,243.604,88.4243,242.996,88.5112Z"/>
<path d="M255.176,82.5881
C255.176,80.5872,254.834,80.2671,252.62,80.187
L252.62,79.6802
H260.199
V80.144
C258.106,80.2251,257.728,80.6057,257.728,82.5881
L257.728,94.4338
C257.728,96.3813,258.081,96.7283,260.199,96.835
L260.199,97.3115
H252.62
V96.8477
C254.789,96.7131,255.176,96.4185,255.176,94.4338Z"/>
<path d="M277.446,80.187
C276.476,80.2668,275.966,80.5337,275.225,81.4409
L269.968,88.1909
C271.678,88.5376,272.444,88.8579,273.286,89.5781
C274.102,90.2717,274.548,91.3923,274.548,92.6462
C274.548,93.7935,274.229,94.7805,273.592,95.5542
C272.622,96.6479,270.504,97.3115,268.105,97.3115
L261.062,97.3115
V96.835
C262.976,96.6216,263.296,96.3281,263.296,94.4338
L263.296,82.8816
C263.296,80.6672,263.033,80.3472,261.062,80.187
L261.062,79.6802
H268.131
V80.187
C266.166,80.3203,265.848,80.6672,265.848,82.5881
L265.848,87.844
L267.263,87.8972
L273.337,79.6799
H277.445
L277.446,80.187Z
M265.848,95.3945
C265.848,96.1414,266.125,96.3838,267.135,96.3838
C270.325,96.3838,271.764,95.2273,271.764,92.6997
C271.764,91.3657,271.243,90.2454,270.351,89.7383
C269.18,89.0447,268.291,88.8845,265.848,88.8313Z"/>
<path d="M280.696,82.5881
C280.696,80.5872,280.354,80.2671,278.14,80.187
L278.14,79.6802
H285.719
V80.144
C283.626,80.2251,283.248,80.6057,283.248,82.5881
L283.248,94.4338
C283.248,96.3813,283.601,96.7283,285.719,96.835
L285.719,97.3115
H278.14
V96.8477
C280.309,96.7131,280.696,96.4185,280.696,94.4338Z"/>
<path d="M292.644,96.1521
V82.8818
C292.644,80.6143,292.362,80.3206,290.231,80.1873
L290.231,79.6804
H297.683
V80.1443
C295.591,80.2532,295.196,80.606,295.196,82.5884
L295.196,96.1521
H296.611
C299.521,96.1521,300.082,95.6812,300.669,92.8069
L301.281,92.8069
L301.128,97.3123
H286.735
L286.582,92.8069
H287.194
C287.807,95.7148,288.394,96.1521,291.252,96.1521Z"/>
<path d="M317.352,93.4202
C317.352,96.1414,317.65,96.5684,319.684,96.8352
L319.684,97.3118
H313.763
V96.8352
C315.754,96.6753,316.192,96.0884,316.192,93.4202
L316.192,86.2168
C316.192,84.4026,316.004,83.3889,315.575,82.5884
C314.886,81.3079,313.253,80.4668,311.339,80.4668
C309.527,80.4668,308.277,81.1116,307.588,82.3748
C307.129,83.2285,306.913,84.2156,306.913,85.8965
L306.913,94.4341
C306.913,96.355,307.198,96.6484,309.272,96.8352
L309.272,97.3118
H302.05
V96.8352
C304.066,96.6753,304.361,96.3818,304.361,94.4341
L304.361,86.1101
C304.361,81.4946,306.423,79.3069,310.752,79.3069
C313.534,79.3069,315.448,80.2405,316.443,82.0547
C317.055,83.175,317.353,84.4023,317.353,86.4568Z"/>
<path d="M331.543,97.6855
H331.008
C330.906,97.093,330.625,96.7786,330.191,96.7786
C329.936,96.7786,329.502,96.8955,329.068,97.1287
C328.124,97.502,327.18,97.6853,326.363,97.6853
C325.266,97.6853,324.143,97.2434,323.301,96.4883
C322.408,95.6614,321.993,94.5408,321.993,93.1533
C321.993,91.019,323.103,89.5249,325.93,87.9509
C327.767,86.9373,329.094,85.8433,329.732,84.8296
C329.961,84.4829,330.112,83.9226,330.112,83.2822
C330.112,81.4949,328.827,80.2617,326.95,80.2617
C324.679,80.2617,323.071,81.7312,321.795,84.9897
L321.208,84.9897
L321.974,79.3337
H322.588
C322.612,79.8406,322.896,80.2141,323.25,80.2141
C323.53,80.2141,323.964,80.1074,324.449,79.9207
C325.418,79.5205,326.439,79.3071,327.46,79.3071
C330.395,79.3071,332.664,81.4148,332.664,84.1628
C332.664,86.3506,331.261,88.0847,327.894,89.979
C325.214,91.5264,324.196,92.7002,324.196,94.1409
C324.196,95.6082,325.245,96.6416,326.796,96.6416
C327.945,96.6416,329.017,96.1279,329.91,95.1545
C330.701,94.2859,331.058,93.5793,331.466,91.9763
L332.104,91.9763Z"/>
<path d="M233.755,73.3254
H233.219
C233.117,72.7329,232.837,72.4185,232.403,72.4185
C232.148,72.4185,231.714,72.5354,231.28,72.7686
C230.336,73.1418,229.392,73.3252,228.575,73.3252
C227.478,73.3252,226.355,72.8833,225.513,72.1282
C224.62,71.3013,224.205,70.1807,224.205,68.7932
C224.205,66.6589,225.315,65.1648,228.142,63.5908
C229.979,62.5771,231.306,61.4832,231.944,60.4695
C232.173,60.1228,232.324,59.5625,232.324,58.9221
C232.324,57.1348,231.039,55.9016,229.162,55.9016
C226.891,55.9016,225.283,57.3711,224.007,60.6296
L223.42,60.6296
L224.186,54.9736
H224.8
C224.823,55.4805,225.108,55.854,225.461,55.854
C225.742,55.854,226.176,55.7473,226.661,55.5605
C227.63,55.1604,228.651,54.947,229.672,54.947
C232.606,54.947,234.875,57.0547,234.875,59.8027
C234.875,61.9905,233.473,63.7246,230.106,65.6189
C227.426,67.1663,226.408,68.3401,226.408,69.7808
C226.408,71.248,227.457,72.2815,229.008,72.2815
C230.156,72.2815,231.229,71.7678,232.122,70.7944
C232.913,69.9258,233.27,69.2192,233.678,67.6162
L234.316,67.6162Z"/>
<path d="M253.589,55.8269
C252.441,55.9067,252.186,56.1736,251.292,58.1479
L244.938,73.272
H244.428
L239.12,60.2024
C237.487,56.3071,237.18,55.8804,235.956,55.8269
L235.956,55.3201
H241.008
V55.7839
C239.783,55.7839,239.273,56.1445,239.273,56.9207
C239.273,57.2407,239.349,57.6143,239.477,57.9609
L240.651,61.1194
H247.337
L248.383,58.521
C248.689,57.8008,248.868,57.1072,248.868,56.7336
C248.868,56.0667,248.434,55.8533,247.082,55.8267
L247.082,55.3198
H253.589
V55.8269Z
M241.084,62.1641
L244.019,69.5137
L246.979,62.1641Z"/>
<path d="M269.676,55.0266
V69.0601
C269.676,70.6606,269.917,71.6479,270.374,71.9946
C270.731,72.2612,271.089,72.3679,272.058,72.4749
L272.058,72.9514
H266.061
V72.4749
C267.031,72.395,267.388,72.2883,267.771,72.0481
C268.281,71.6748,268.516,70.7141,268.516,69.0601
L268.516,60.0691
L258.686,72.9519
H254.322
V72.488
C255.42,72.488,255.778,72.2725,256.8,71.0081
L256.8,59.2422
C256.8,56.4944,256.442,55.9873,254.322,55.8271
L254.322,55.3203
H260.319
V55.7842
C258.354,55.8918,257.96,56.5137,257.96,59.2419
L257.96,69.7004
L269.2,55.0266Z"/>
<path d="M288.282,67.2681
L288.053,73.3254
H287.517
C287.364,72.7849,286.956,72.4451,286.445,72.4451
C286.216,72.4451,285.833,72.5354,285.45,72.7153
C284.2,73.1421,282.924,73.3254,281.724,73.3254
C279.632,73.3254,277.513,72.509,275.931,71.0613
C274.145,69.4072,273.156,66.926,273.156,63.9912
C273.156,61.51,273.929,59.2156,275.242,57.6948
C276.773,55.9607,279.121,54.947,281.647,54.947
C284.531,54.947,287.058,56.1741,288.614,58.3352
L288.155,58.8154
C286.267,56.9214,284.582,56.1069,282.464,56.1069
C280.856,56.1069,279.427,56.645,278.33,57.6682
C276.927,58.9753,276.173,61.3767,276.173,64.3381
C276.173,69.167,278.531,72.2817,282.209,72.2817
C283.664,72.2817,284.991,71.7239,286.011,70.6614
C286.828,69.7927,287.211,69.033,287.696,67.2686Z"/>
<path d="M296.008,71.792
V58.5217
C296.008,56.2542,295.726,55.9604,293.595,55.8271
L293.595,55.3203
H301.047
V55.7842
C298.955,55.8931,298.56,56.2458,298.56,58.2283
L298.56,71.792
H299.975
C302.885,71.792,303.446,71.321,304.033,68.4468
L304.645,68.4468
L304.492,72.9521
H290.099
L289.946,68.4468
H290.558
C291.171,71.3547,291.758,71.792,294.616,71.792Z"/>
<path d="M320.716,69.0601
C320.716,71.7813,321.014,72.2083,323.047,72.4751
L323.047,72.9517
H317.127
V72.4751
C319.117,72.3152,319.556,71.7283,319.556,69.0601
L319.556,61.8567
C319.556,60.0425,319.368,59.0288,318.939,58.2283
C318.25,56.9478,316.617,56.1067,314.703,56.1067
C312.891,56.1067,311.641,56.7515,310.952,58.0146
C310.492,58.8684,310.277,59.8555,310.277,61.5364
L310.277,70.074
C310.277,71.9949,310.562,72.2883,312.636,72.4751
L312.636,72.9517
H305.414
V72.4751
C307.43,72.3152,307.725,72.0217,307.725,70.074
L307.725,61.75
C307.725,57.1345,309.787,54.9468,314.116,54.9468
C316.897,54.9468,318.812,55.8804,319.807,57.6946
C320.419,58.8149,320.716,60.0422,320.716,62.0967Z"/>
<path d="M334.907,73.3254
H334.372
C334.27,72.7329,333.989,72.4185,333.555,72.4185
C333.3,72.4185,332.866,72.5354,332.432,72.7686
C331.488,73.1418,330.544,73.3252,329.727,73.3252
C328.63,73.3252,327.507,72.8833,326.665,72.1282
C325.772,71.3013,325.357,70.1807,325.357,68.7932
C325.357,66.6589,326.467,65.1648,329.294,63.5908
C331.131,62.5771,332.458,61.4832,333.096,60.4695
C333.325,60.1228,333.476,59.5625,333.476,58.9221
C333.476,57.1348,332.191,55.9016,330.314,55.9016
C328.043,55.9016,326.435,57.3711,325.159,60.6296
L324.572,60.6296
L325.338,54.9736
H325.952
C325.976,55.4805,326.26,55.854,326.614,55.854
C326.894,55.854,327.328,55.7473,327.813,55.5605
C328.782,55.1604,329.803,54.947,330.824,54.947
C333.759,54.947,336.028,57.0547,336.028,59.8027
C336.028,61.9905,334.625,63.7246,331.258,65.6189
C328.578,67.1663,327.56,68.3401,327.56,69.7808
C327.56,71.248,328.609,72.2815,330.16,72.2815
C331.309,72.2815,332.381,71.7678,333.274,70.7944
C334.065,69.9258,334.422,69.2192,334.83,67.6162
L335.468,67.6162Z"/>
</g>
</svg>
